<!DOCTYPE svg PUBLIC "-//W3C//DTD SVG 1.1//EN" "http://www.w3.org/Graphics/SVG/1.1/DTD/svg11.dtd">
<!-- Uploaded to: SVG Repo, www.svgrepo.com, Transformed by: SVG Repo Mixer Tools -->
<svg version="1.1" id="Layer_1" xmlns="http://www.w3.org/2000/svg" xmlns:xlink="http://www.w3.org/1999/xlink" viewBox="0 0 512 512" xml:space="preserve" width="800px" height="800px" fill="#000000">
<g id="SVGRepo_bgCarrier" stroke-width="0"/>
<g id="SVGRepo_tracerCarrier" stroke-linecap="round" stroke-linejoin="round"/>
<g id="SVGRepo_iconCarrier"> <path style="fill:#008A6A;" d="M501.801,494.034h-440c-13.789,0-24.969-11.178-24.969-24.969V223.819 c0-13.789,11.178-24.969,24.969-24.969h440V494.034z"/> <g> <path style="fill:#9CDCFF;" d="M449.644,146.694H126.719c-14.096,0-25.524,11.427-25.524,25.523v26.633h400.605l0,0 C501.801,170.046,478.45,146.694,449.644,146.694z"/> <path style="fill:#9CDCFF;" d="M26.507,396.813h51.722c27.819,0,50.371-22.552,50.371-50.371l0,0 c0-27.819-22.552-50.371-50.371-50.371H26.507c-9.007,0-16.308,7.302-16.308,16.308v68.127 C10.199,389.512,17.501,396.813,26.507,396.813z"/> </g> <circle style="fill:#FFFFFF;" cx="79.003" cy="346.447" r="16.646"/> <rect x="204.402" y="17.967" style="fill:#45B5F5;" width="200.863" height="180.883"/> <g> <path style="fill:#3B404F;" d="M449.644,136.494h-34.189V17.967c0-5.632-4.567-10.199-10.199-10.199H204.398 c-5.632,0-10.199,4.567-10.199,10.199v118.527h-67.48c-19.698,0-35.723,16.025-35.723,35.723v16.433H61.801 c-19.392,0-35.167,15.777-35.167,35.168v62.052h-0.126C11.891,285.871,0,297.762,0,312.379v68.127 c0,14.615,11.891,26.507,26.507,26.507h0.126v62.053c0,19.392,15.776,35.167,35.167,35.167h440.001 c5.632,0,10.199-4.567,10.199-10.199V198.85C512,164.468,484.028,136.494,449.644,136.494z M449.644,156.893 c19.619,0,36.137,13.535,40.704,31.758h-74.894v-31.758H449.644z M214.597,28.167h180.46v160.484h-50.623V86.769 c0-5.632-4.567-10.199-10.199-10.199c-5.632,0-10.199,4.567-10.199,10.199v101.882h-37.307V86.769 c0-5.632-4.567-10.199-10.199-10.199c-5.632,0-10.199,4.567-10.199,10.199v101.882h-51.733V28.167z M111.395,172.218 c0-8.45,6.874-15.324,15.324-15.324h67.48v31.758h-82.805v-16.434H111.395z M20.398,380.505v-68.127 c0-3.369,2.741-6.109,6.108-6.109h51.722c22.152,0,40.173,18.021,40.173,40.173s-18.021,40.173-40.173,40.173H26.507 C23.139,386.615,20.398,383.874,20.398,380.505z M491.602,209.049v274.785H61.801c-8.143,0-14.768-6.625-14.768-14.768v-62.053 H78.23c33.398,0,60.571-27.173,60.571-60.571s-27.173-60.571-60.571-60.571H47.032v-62.052c0-8.144,6.625-14.769,14.768-14.769 L491.602,209.049L491.602,209.049z"/> <path style="fill:#3B404F;" d="M105.845,346.442c0-14.802-12.043-26.844-26.844-26.844s-26.844,12.043-26.844,26.844 s12.043,26.844,26.844,26.844S105.845,361.244,105.845,346.442z M72.555,346.442c0-3.554,2.891-6.446,6.446-6.446 s6.446,2.891,6.446,6.446s-2.891,6.446-6.446,6.446S72.555,349.996,72.555,346.442z"/> <path style="fill:#3B404F;" d="M280.968,446.104h-6.658c-5.632,0-10.199,4.567-10.199,10.199c0,5.632,4.567,10.199,10.199,10.199 h6.658c5.632,0,10.199-4.567,10.199-10.199C291.167,450.672,286.601,446.104,280.968,446.104z"/> <path style="fill:#3B404F;" d="M309.609,456.304c0,5.632,4.567,10.199,10.199,10.199h139.824c5.632,0,10.199-4.567,10.199-10.199 c0-5.632-4.567-10.199-10.199-10.199H319.808C314.175,446.104,309.609,450.671,309.609,456.304z"/> </g> </g>
</svg>